<?xml version="1.0" standalone="no"?>
<!DOCTYPE svg PUBLIC "-//W3C//DTD SVG 20010904//EN"
 "http://www.w3.org/TR/2001/REC-SVG-20010904/DTD/svg10.dtd">
<svg version="1.0" xmlns="http://www.w3.org/2000/svg"
 width="1166.000000pt" height="1166.000000pt" viewBox="0 0 1166.000000 1166.000000"
 preserveAspectRatio="xMidYMid meet">
<metadata>
Created by potrace 1.14, written by Peter Selinger 2001-2017
</metadata>
<g transform="translate(0.000000,1166.000000) scale(0.100000,-0.100000)"
fill="#000000" stroke="none">
<path d="M650 10256 c-63 -18 -81 -29 -126 -78 -42 -46 -214 -328 -282 -463
-93 -186 -194 -540 -227 -795 -21 -157 -16 -446 10 -614 44 -289 147 -551 313
-801 75 -113 299 -346 442 -459 324 -256 716 -455 1088 -552 184 -47 535 -99
886 -129 214 -18 237 -24 313 -75 127 -84 184 -172 260 -397 33 -100 37 -121
45 -278 16 -331 47 -430 256 -812 123 -225 170 -295 352 -529 194 -248 260
-337 280 -379 29 -60 87 -271 120 -435 39 -195 60 -398 60 -582 0 -84 5 -225
11 -313 9 -141 15 -175 51 -290 48 -157 107 -305 160 -402 41 -74 134 -186
206 -247 63 -52 297 -172 398 -203 88 -27 92 -27 424 -31 184 -2 412 1 505 6
l170 9 129 53 130 54 106 105 c127 127 216 240 305 386 69 115 106 213 129
348 14 81 20 140 51 507 21 246 48 460 91 715 49 287 76 341 308 620 227 272
286 363 522 810 100 189 154 400 154 605 1 181 21 264 118 479 65 145 101 188
193 230 58 26 77 30 214 36 83 3 175 10 205 15 30 5 125 16 210 25 631 63
1174 279 1640 651 109 87 335 308 409 399 148 184 259 443 335 783 53 235 60
538 17 737 -12 55 -28 144 -36 198 -20 128 -95 377 -151 496 -56 118 -214 391
-277 477 -26 36 -68 78 -94 94 -41 27 -56 30 -122 30 -54 0 -96 -7 -144 -24
-91 -33 -115 -50 -138 -99 -17 -38 -19 -69 -19 -338 0 -179 6 -379 16 -505 35
-455 -2 -685 -140 -877 -58 -82 -189 -207 -280 -266 -129 -84 -531 -232 -842
-310 -197 -49 -252 -58 -694 -113 -392 -48 -441 -52 -630 -51 -223 0 -353 17
-520 68 -232 69 -414 115 -495 125 -128 14 -368 12 -598 -5 -230 -18 -296 -30
-493 -91 l-145 -45 -147 45 c-202 62 -268 75 -482 91 -341 25 -403 27 -525 16
-155 -15 -226 -30 -442 -95 -265 -80 -359 -98 -555 -104 -185 -5 -272 1 -784
59 -429 48 -623 85 -948 184 -541 164 -796 360 -913 700 -37 109 -45 242 -32
545 18 434 22 756 10 875 -13 130 -18 137 -139 183 -95 37 -162 46 -222 28z
m-72 -861 c-13 -208 -4 -547 17 -665 34 -194 104 -363 206 -501 71 -96 241
-256 349 -328 366 -245 931 -412 1725 -512 359 -46 610 -60 861 -48 165 8 254
26 707 149 178 48 267 55 489 41 317 -19 578 -61 704 -112 59 -24 100 -33 160
-37 78 -4 90 -2 235 47 229 75 445 105 779 106 205 0 241 -6 513 -86 239 -70
363 -95 551 -111 125 -10 179 -9 451 11 171 12 333 26 360 32 28 5 95 14 150
20 314 32 841 150 1135 255 170 61 425 189 540 271 112 80 258 222 323 314 97
137 168 309 201 490 13 66 17 167 19 462 1 207 3 377 5 377 19 0 125 -357 153
-520 30 -165 36 -422 15 -567 -52 -357 -218 -685 -451 -896 -257 -232 -550
-412 -860 -530 -265 -100 -512 -147 -965 -182 -263 -21 -388 -39 -503 -74 -50
-16 -150 -41 -222 -56 -114 -24 -195 -49 -195 -58 0 -2 -24 -84 -54 -183 -77
-257 -88 -328 -106 -741 -15 -314 -18 -324 -203 -668 -80 -147 -317 -485 -442
-630 -200 -231 -251 -341 -334 -720 -48 -217 -58 -289 -71 -510 -6 -93 -17
-240 -25 -325 -8 -85 -19 -209 -24 -275 -15 -175 -31 -223 -113 -350 -94 -144
-155 -222 -222 -279 -125 -107 -205 -120 -688 -113 -272 3 -344 7 -393 21 -69
19 -243 115 -296 163 -81 73 -193 354 -218 550 -6 43 -15 191 -21 328 -13 311
-26 465 -51 624 -40 256 -92 447 -157 576 -50 101 -91 161 -227 330 -248 308
-300 385 -457 675 -155 286 -163 315 -174 625 -10 330 -43 548 -119 790 -41
132 -34 125 -165 151 -47 8 -166 38 -265 65 -218 59 -267 66 -535 79 -229 11
-376 29 -545 65 -467 101 -913 325 -1262 633 -97 86 -249 291 -309 417 -155
328 -197 688 -130 1105 34 208 134 510 156 469 4 -8 3 -81 -2 -164z"/>
<path d="M5768 6237 c-42 -78 -105 -201 -140 -274 l-63 -132 -313 -3 -313 -3
163 -96 c90 -53 193 -114 231 -135 44 -25 67 -44 67 -57 0 -18 -113 -262 -226
-489 -35 -70 -64 -130 -64 -134 0 -6 46 19 362 189 86 46 209 107 273 135
l117 52 61 -26 c34 -15 207 -100 385 -191 178 -91 325 -163 327 -161 3 2 -67
143 -155 313 -114 220 -157 312 -150 321 6 6 105 60 220 119 115 59 214 113
220 120 11 13 -201 25 -447 25 -68 0 -133 4 -143 10 -10 5 -55 78 -100 162
-124 230 -220 398 -228 398 -4 0 -42 -64 -84 -143z"/>
<path d="M5639 3030 c-187 -5 -197 -6 -231 -30 -84 -57 -109 -175 -54 -250 11
-16 56 -70 99 -120 78 -91 78 -92 75 -143 -3 -48 -6 -53 -38 -71 -50 -26 -118
-16 -165 26 -41 35 -61 93 -70 200 -3 40 -8 84 -11 97 l-5 25 -25 -30 c-13
-16 -37 -49 -52 -74 -26 -44 -27 -49 -27 -202 l0 -156 30 -44 c46 -65 90 -83
205 -82 80 1 113 7 210 38 63 20 138 39 166 42 63 8 161 -8 325 -52 188 -50
311 -43 353 22 41 62 58 233 36 355 -12 66 -70 184 -90 184 -11 0 -16 -13 -17
-45 -6 -106 -26 -211 -47 -242 -31 -47 -82 -78 -128 -78 -57 0 -106 24 -114
54 -14 57 4 91 101 195 96 104 115 137 115 210 0 43 -38 100 -88 135 -69 47
-96 49 -553 36z"/>
</g>
</svg>
